<svg xmlns="http://www.w3.org/2000/svg" viewBox="0 0 2048 2048" width="16" height="16">
  <path fill="#424242" d="M1407 598l43 43-383 383 383 383-43 43-383-383-383 383-43-43 383-383-383-383 43-43 383 383 383-383zm641 426q0 142-36 272t-103 245-160 207-208 160-245 103-272 37q-142 0-272-36t-245-103-207-160-160-208-103-245-37-272q0-141 36-272t103-245 160-207 208-160T752 37t272-37q141 0 272 36t245 103 207 160 160 208 103 245 37 272zm-1024 963q133 0 256-34t230-97 195-151 150-195 97-230 35-256q0-133-34-256t-97-230-151-195-195-150-230-97-256-35q-133 0-256 34t-230 97-195 151-150 195-97 230-35 256q0 133 34 256t97 230 151 195 195 150 230 97 256 35z" />
</svg>